<svg width="48" height="48" viewBox="0 0 48 48" fill="none" xmlns="http://www.w3.org/2000/svg">
<path d="M31.8918 23.639L31.8921 23.6392C31.9515 23.6788 32.0002 23.7324 32.034 23.7953C32.0677 23.8583 32.0853 23.9286 32.0853 24C32.0853 24.0714 32.0677 24.1416 32.034 24.2046C32.0002 24.2675 31.9515 24.3212 31.8921 24.3607L31.8918 24.3609L20.5062 31.9482C20.5061 31.9482 20.5061 31.9482 20.5061 31.9483C20.4409 31.9914 20.3653 32.0162 20.2872 32.0199C20.2091 32.0236 20.1314 32.006 20.0624 31.9692C19.9935 31.9323 19.9358 31.8774 19.8954 31.8104C19.8553 31.7437 19.8338 31.6673 19.8334 31.5894V16.4105C19.8336 16.3322 19.855 16.2553 19.8953 16.1881C19.9357 16.1209 19.9936 16.066 20.0627 16.0291C20.1318 15.9922 20.2097 15.9747 20.288 15.9785C20.3663 15.9824 20.442 16.0074 20.5072 16.0509L20.7847 15.635L20.5074 16.051L31.8918 23.639ZM24.0001 46.8333C11.3892 46.8333 1.16675 36.6108 1.16675 24C1.16675 11.3891 11.3892 1.16663 24.0001 1.16663C36.6109 1.16663 46.8334 11.3891 46.8334 24C46.8334 36.6108 36.6109 46.8333 24.0001 46.8333ZM24.0001 43.1666C29.0834 43.1666 33.9585 41.1473 37.553 37.5528C41.1474 33.9584 43.1667 29.0833 43.1667 24C43.1667 18.9166 41.1474 14.0415 37.553 10.4471C33.9585 6.85263 29.0834 4.83329 24.0001 4.83329C18.9168 4.83329 14.0416 6.85263 10.4472 10.4471C6.85275 14.0415 4.83341 18.9166 4.83341 24C4.83341 29.0833 6.85275 33.9584 10.4472 37.5528C14.0416 41.1473 18.9168 43.1666 24.0001 43.1666Z" fill="white" stroke="black"/>
</svg>
